<?xml version="1.0" standalone="no"?>
<!DOCTYPE svg PUBLIC "-//W3C//DTD SVG 20010904//EN"
 "http://www.w3.org/TR/2001/REC-SVG-20010904/DTD/svg10.dtd">
<svg version="1.0" xmlns="http://www.w3.org/2000/svg"
 width="1564.000000pt" height="1564.000000pt" viewBox="0 0 1564.000000 1564.000000"
 preserveAspectRatio="xMidYMid meet">
<metadata>
Created by potrace 1.11, written by Peter Selinger 2001-2013
</metadata>
<g transform="translate(0.000000,1564.000000) scale(0.100000,-0.100000)"
fill="#000000" stroke="none">
<path d="M6420 14969 c-665 -44 -1448 -189 -1625 -300 -134 -84 -262 -215
-377 -384 -301 -444 -520 -1118 -569 -1755 -6 -80 -30 -287 -54 -460 -100
-713 -125 -947 -125 -1162 0 -174 10 -267 45 -403 31 -125 101 -300 135 -338
19 -23 33 -58 48 -122 51 -221 53 -366 6 -590 -37 -179 -40 -347 -6 -420 44
-96 112 -142 245 -165 64 -12 127 -7 205 16 22 6 22 5 15 -37 -4 -24 -8 -150
-8 -279 0 -310 27 -445 115 -588 37 -60 201 -200 338 -289 l82 -53 0 -148 c-1
-233 -20 -346 -66 -402 -23 -27 -32 -30 -82 -30 -166 0 -411 -55 -625 -139
-40 -16 -96 -36 -126 -46 -29 -9 -135 -59 -235 -109 -99 -50 -230 -114 -291
-141 -138 -62 -233 -125 -319 -211 -122 -123 -185 -236 -254 -459 -74 -240
-88 -302 -103 -453 -43 -460 300 -1955 671 -2922 103 -271 179 -429 260 -549
75 -110 94 -122 242 -145 112 -18 176 -41 375 -132 127 -58 150 -65 196 -63
28 1 76 -5 105 -14 74 -23 148 -35 276 -46 108 -9 111 -9 270 30 88 22 238 63
331 91 l170 51 540 -27 c1373 -68 1600 -85 2710 -207 801 -87 1031 -109 1163
-109 l105 0 35 38 c42 44 112 149 112 169 0 7 5 13 10 13 16 0 588 -193 830
-280 118 -42 239 -83 268 -90 50 -13 55 -13 97 10 25 14 45 27 45 30 0 3 -24
11 -52 17 -60 13 -638 212 -652 225 -6 4 3 8 20 8 41 0 118 39 189 94 33 26
117 85 186 131 138 92 168 121 228 222 51 87 87 195 101 308 14 108 26 142 55
161 32 21 89 6 270 -71 170 -72 227 -90 249 -82 26 10 7 33 -37 46 -23 7 -109
41 -192 76 -206 87 -243 95 -321 70 -20 -6 -21 -2 -27 82 -8 132 -52 328 -112
508 -69 209 -108 292 -185 395 -62 83 -231 260 -340 355 l-55 48 55 -7 c231
-29 661 -166 905 -288 196 -99 436 -293 490 -398 18 -35 55 -273 55 -356 0
-69 -13 -104 -76 -202 -30 -45 -54 -91 -54 -101 0 -24 26 -45 46 -37 31 12 91
-13 127 -53 66 -73 113 -253 104 -398 -3 -46 -3 -83 -1 -83 2 0 19 14 39 31
l35 31 0 87 c-1 208 -79 385 -195 441 -25 12 -45 24 -45 27 0 3 9 18 20 33 12
16 33 55 47 87 33 71 34 165 5 361 -26 169 -39 192 -197 347 -68 66 -141 143
-163 172 -77 101 -127 255 -272 848 -101 412 -121 479 -193 645 -107 248 -360
721 -492 920 -130 197 -271 319 -490 427 -197 97 -348 139 -608 169 -72 8
-134 19 -135 25 -10 27 -87 131 -118 158 -80 71 -210 114 -333 110 -42 -1
-117 2 -168 6 -95 8 -195 -5 -230 -30 -12 -9 -28 -9 -57 -3 -40 10 -167 5
-198 -7 -25 -10 -69 116 -83 235 -8 63 8 240 35 408 l18 112 133 138 c383 398
514 623 542 930 19 220 -10 660 -64 947 -46 249 -81 362 -202 655 -133 322
-167 444 -186 665 -22 244 -9 526 35 800 58 362 58 362 45 460 -22 159 -42
239 -73 294 l-30 54 49 -6 c134 -18 697 -28 974 -17 993 36 1518 165 1615 395
18 44 18 128 0 164 -32 61 -121 117 -256 160 -312 98 -1286 180 -2155 181
-170 0 -328 5 -350 10 -25 6 -50 21 -68 42 -15 18 -97 173 -181 343 -84 171
-181 357 -214 413 -206 345 -454 557 -733 625 -87 22 -248 44 -403 57 -148 12
-671 11 -856 -1z m691 -743 c296 -102 417 -427 249 -671 -72 -104 -192 -188
-316 -220 -77 -20 -235 -20 -305 1 -137 40 -253 135 -311 252 -31 64 -33 72
-33 182 0 109 2 119 32 183 59 123 187 232 327 277 108 35 249 33 357 -4z
m1514 -1600 c177 -14 217 -20 255 -39 65 -33 97 -85 121 -197 36 -172 35 -249
-4 -480 -49 -282 -60 -439 -54 -741 7 -372 26 -457 198 -877 182 -444 245
-759 256 -1289 6 -294 -1 -367 -48 -498 -65 -177 -188 -347 -458 -632 -262
-277 -473 -458 -838 -720 -333 -237 -539 -335 -903 -426 -106 -26 -144 -31
-250 -32 -112 0 -134 3 -215 29 -182 60 -622 299 -1225 666 -157 95 -366 222
-465 283 -195 118 -207 126 -338 231 -95 76 -135 127 -168 215 -50 133 -53
166 -54 515 0 319 -1 329 -20 342 -18 12 -30 10 -90 -11 -83 -29 -137 -31
-219 -8 -71 20 -126 69 -144 129 -19 66 -14 190 13 325 64 312 53 484 -57 849
-77 257 -76 364 3 454 54 61 109 81 224 81 104 -1 156 -21 200 -79 41 -54 61
-117 110 -357 60 -290 77 -329 140 -329 37 0 57 19 84 80 52 118 81 248 271
1189 l148 734 33 26 c64 51 265 173 374 228 184 93 411 165 750 238 331 71
539 98 920 119 33 2 326 2 650 1 443 -2 642 -7 800 -19z m-3355 -5218 c798
-488 1164 -692 1369 -760 91 -30 104 -32 246 -32 129 0 167 4 268 28 339 79
589 191 916 409 174 116 300 215 594 467 l40 34 -6 -39 c-43 -269 -34 -455 29
-620 4 -9 -17 -20 -59 -34 -98 -33 -307 -140 -439 -224 -158 -101 -304 -220
-798 -647 -252 -218 -442 -377 -488 -409 -93 -65 -216 21 -539 371 -287 313
-441 497 -567 678 -123 175 -257 281 -431 339 -95 32 -319 77 -435 87 l-69 7
15 29 c27 52 43 159 50 330 4 92 10 166 13 164 3 -2 134 -82 291 -178z m-313
-429 c137 -15 333 -54 423 -84 169 -56 252 -126 420 -351 194 -260 399 -497
675 -782 144 -149 221 -212 310 -253 54 -26 75 -31 115 -27 64 6 87 24 605
469 472 405 628 532 740 604 198 127 376 213 541 260 71 20 108 25 170 23 l79
-3 62 -305 c34 -168 72 -364 84 -436 l23 -130 -48 -90 c-27 -49 -66 -114 -86
-144 -51 -75 -103 -181 -130 -265 -12 -38 -26 -73 -29 -78 -4 -4 -405 11 -892
33 -1471 66 -1588 71 -2035 77 -463 6 -604 0 -841 -40 l-131 -22 -96 275
c-110 314 -128 388 -191 774 -48 297 -69 399 -91 452 -8 18 -14 36 -14 38 0 5
73 11 178 14 34 1 106 -3 159 -9z m4678 -141 c79 -26 118 -51 161 -104 l36
-43 0 -123 c-1 -151 -15 -223 -82 -403 -91 -245 -112 -332 -114 -465 -1 -139
18 -154 214 -165 373 -19 545 -70 602 -177 20 -38 23 -61 26 -186 4 -164 -10
-364 -38 -528 -33 -192 -90 -416 -116 -457 -89 -138 -350 -201 -894 -216 -323
-9 -320 -9 -535 -135 -155 -91 -218 -117 -306 -123 -65 -5 -67 -5 -106 31 -23
20 -51 36 -64 36 -32 0 -182 -86 -715 -412 -1195 -731 -1390 -838 -1727 -954
-330 -113 -638 -134 -859 -59 -93 31 -146 68 -165 113 -52 126 -37 473 43 947
30 181 59 313 120 545 43 160 52 184 110 280 34 58 69 113 76 123 10 14 38 20
133 28 66 5 327 34 580 64 899 106 1213 134 1775 155 289 11 431 27 586 64
227 55 447 170 499 260 13 24 32 88 44 151 27 139 84 337 125 435 18 41 59
118 93 170 79 125 246 441 266 505 33 103 49 231 54 447 5 189 8 218 22 221
27 6 93 -5 156 -25z m-5845 -175 c1 -72 178 -703 382 -1363 123 -399 228 -736
233 -750 7 -22 6 -23 -9 -11 -14 12 -15 10 -10 -16 5 -25 -17 -75 -129 -294
-194 -377 -285 -610 -392 -1003 -95 -344 -143 -619 -154 -881 l-6 -150 -59
134 c-321 734 -678 2051 -770 2842 -35 295 -13 457 111 829 95 286 247 446
549 575 56 24 133 60 171 79 37 19 71 35 76 36 4 0 7 -12 7 -27z m6395 -109
c228 -37 446 -121 626 -240 90 -59 227 -204 303 -321 149 -230 444 -798 522
-1008 20 -55 81 -278 135 -495 110 -447 175 -678 213 -763 14 -32 22 -57 18
-55 -4 2 -38 19 -77 39 -178 93 -437 186 -683 248 -203 50 -312 65 -458 59
l-119 -4 4 39 c2 21 -2 58 -9 81 -11 40 -10 48 19 113 43 99 47 138 23 215
-37 114 -37 111 11 206 25 48 49 104 55 125 15 54 -5 112 -62 183 -45 55 -47
58 -39 103 4 25 8 91 8 146 0 87 -3 107 -27 157 -53 114 -159 182 -350 223
-62 14 -145 32 -185 41 -78 17 -124 43 -157 87 -31 41 -27 181 8 352 42 200
45 351 10 474 -7 23 -7 23 57 16 35 -3 105 -13 154 -21z m-5301 -1614 c35 -13
66 -46 66 -70 0 -12 -16 -37 -35 -57 -32 -32 -40 -36 -92 -37 -80 -1 -110 9
-128 45 -24 45 -16 79 24 106 37 25 118 31 165 13z m-151 -280 c17 0 30 -15
56 -65 35 -68 80 -115 110 -115 10 0 26 9 37 21 31 35 70 49 132 49 95 0 161
-32 183 -88 7 -19 2 -34 -30 -80 -65 -97 -364 -598 -456 -767 -112 -204 -190
-368 -270 -570 -119 -301 -164 -492 -172 -735 -8 -230 17 -374 82 -472 14 -21
23 -38 20 -38 -3 0 -36 15 -73 34 -97 48 -238 102 -302 115 -225 44 -210 38
-231 86 -69 156 -24 626 107 1110 142 527 227 740 513 1275 57 106 134 229
144 230 1 0 20 7 42 14 26 9 47 11 63 5 13 -5 33 -9 45 -9z m5893 -895 c125
-55 261 -173 373 -324 124 -168 267 -430 278 -510 5 -38 3 -44 -33 -78 -55
-52 -219 -157 -306 -197 -251 -114 -526 -161 -805 -137 -443 38 -1178 267
-1499 467 -60 37 -94 70 -82 79 2 1 48 19 103 40 290 111 734 315 871 400 48
30 83 45 105 45 57 0 218 29 334 60 133 35 409 128 485 164 63 29 94 27 176
-9z"/>
<path d="M7756 11877 c-32 -32 -51 -188 -43 -347 9 -179 -1 -173 151 -89 159
87 252 125 347 141 44 7 188 12 354 13 154 0 288 2 298 3 22 3 23 44 0 80 -41
64 -89 114 -155 159 l-70 48 -102 3 c-57 2 -190 -6 -303 -17 -271 -28 -316
-27 -375 4 -58 31 -73 31 -102 2z"/>
<path d="M6656 11847 l-60 -32 -155 1 c-86 0 -238 9 -338 18 -100 10 -225 17
-277 14 -86 -3 -102 -7 -171 -43 -91 -46 -155 -112 -202 -207 -58 -116 -81
-252 -47 -265 9 -3 39 4 68 17 266 116 393 155 548 169 208 18 420 -12 553
-79 62 -31 81 -48 168 -152 54 -65 105 -118 114 -118 13 0 14 12 9 83 -22 278
-44 441 -71 518 -16 43 -60 110 -73 108 -4 0 -34 -15 -66 -32z"/>
<path d="M7457 11288 c-13 -162 -8 -810 8 -1002 26 -314 50 -387 172 -517 41
-44 83 -99 93 -122 43 -97 56 -290 25 -364 -46 -113 -193 -175 -415 -177 -110
-1 -119 1 -195 34 -70 30 -91 34 -165 34 -89 0 -130 -13 -130 -41 0 -13 9 -14
68 -7 97 12 135 8 205 -22 132 -56 137 -57 237 -50 169 10 335 63 391 123 48
51 66 185 50 353 -14 141 -29 174 -120 267 -75 77 -94 108 -135 222 -38 106
-47 256 -50 826 -2 264 -6 490 -11 503 -14 40 -22 23 -28 -60z"/>
<path d="M8085 11293 c-164 -26 -334 -99 -389 -166 -37 -45 -79 -131 -90 -182
-5 -23 0 -18 19 20 25 49 105 134 148 157 13 6 2 -10 -25 -39 -58 -63 -83
-112 -98 -190 -27 -154 46 -307 189 -391 42 -24 55 -27 146 -27 89 0 106 3
157 28 75 37 135 98 172 177 26 57 30 76 30 150 0 71 -4 95 -26 142 -60 130
-179 211 -313 212 -38 1 -83 -2 -100 -7 -24 -6 -26 -5 -12 4 47 28 214 62 317
63 131 1 189 -17 261 -82 48 -43 51 -44 36 -15 -23 45 -97 105 -153 126 -49
19 -207 30 -269 20z m-236 -137 c-2 -2 -15 -9 -29 -15 -24 -11 -24 -11 -6 3
16 13 49 24 35 12z m82 -115 c41 -41 40 -91 -1 -133 -27 -26 -36 -30 -68 -25
-48 8 -82 47 -82 93 0 47 45 94 90 94 22 0 41 -9 61 -29z m213 -332 c33 -26
33 -39 -4 -74 -28 -27 -30 -27 -55 -11 -33 21 -34 68 -3 90 29 20 30 20 62 -5z"/>
<path d="M6000 11199 c-105 -18 -199 -76 -245 -149 -21 -33 -59 -140 -50 -140
2 0 16 24 33 53 81 144 248 214 447 188 275 -37 516 -158 588 -296 22 -42 22
-4 0 42 -58 123 -249 248 -442 289 -88 18 -262 25 -331 13z"/>
<path d="M6095 11117 c-178 -59 -284 -217 -273 -407 9 -147 85 -263 216 -328
72 -35 81 -37 172 -37 87 0 101 3 161 32 80 39 150 111 187 191 24 51 27 69
27 167 0 98 -3 116 -27 167 -37 80 -107 152 -186 190 -55 27 -77 32 -151 35
-52 2 -102 -2 -126 -10z m31 -129 c12 -6 27 -21 33 -35 45 -98 -48 -190 -139
-136 -51 30 -63 86 -30 140 28 47 79 58 136 31z m244 -388 c11 -11 20 -29 20
-39 0 -26 -56 -72 -78 -64 -45 16 -57 81 -20 107 30 21 54 20 78 -4z"/>
<path d="M4122 10298 c-19 -19 -15 -31 30 -104 57 -95 105 -202 134 -302 13
-46 24 -86 24 -89 0 -2 -10 3 -22 11 -54 38 -124 5 -149 -71 -18 -56 -6 -215
22 -293 20 -55 28 -65 50 -68 48 -6 54 18 23 105 -30 88 -37 201 -15 243 l14
24 37 -42 c21 -23 53 -76 71 -117 32 -73 34 -76 64 -73 l30 3 -2 60 c-1 33
-22 141 -47 239 -35 141 -57 203 -100 290 -85 174 -127 221 -164 184z"/>
<path d="M5550 9009 c-35 -14 -69 -48 -91 -92 -36 -70 -101 -597 -73 -597 5 0
17 20 28 45 24 60 94 130 159 160 71 34 103 33 112 -2 22 -92 234 -449 383
-648 60 -79 166 -199 222 -252 119 -111 305 -153 681 -153 260 0 671 38 776
71 80 26 104 105 112 374 8 249 9 252 168 416 62 64 117 129 123 143 11 30 29
32 77 10 24 -12 60 -52 120 -135 47 -66 89 -119 93 -119 24 0 28 306 5 426
-27 141 -105 264 -191 300 -41 17 -59 14 -189 -37 -114 -44 -515 -153 -620
-168 -279 -41 -914 36 -1328 160 -323 96 -377 109 -461 108 -45 0 -92 -5 -106
-10z m340 -551 c325 -161 619 -247 950 -279 149 -14 376 -7 510 16 134 24 317
86 440 151 235 123 340 165 340 136 0 -6 -39 -53 -87 -104 -145 -154 -189
-216 -207 -291 -5 -22 -19 -34 -62 -53 -106 -47 -275 -84 -449 -100 -44 -4
-74 -9 -67 -12 22 -7 240 18 340 39 83 18 163 42 216 64 18 8 19 3 13 -146 -7
-179 -22 -249 -64 -291 -25 -25 -43 -31 -129 -44 -311 -47 -722 -67 -925 -44
-238 26 -335 67 -457 194 -98 103 -322 399 -310 411 1 2 55 -17 118 -41 290
-112 461 -153 663 -159 l132 -3 -115 9 c-235 20 -425 70 -689 181 l-143 61
-40 61 c-87 135 -176 340 -140 324 4 -1 77 -38 162 -80z"/>
<path d="M3942 5343 c2 -14 16 -19 58 -23 40 -4 56 -9 58 -21 2 -9 -22 -83
-53 -164 -42 -110 -55 -158 -53 -189 2 -33 7 -41 23 -41 17 0 20 7 21 45 0 29
19 92 52 177 77 197 70 233 -47 233 -54 0 -62 -2 -59 -17z"/>
<path d="M3260 4425 c0 -25 147 -171 229 -229 42 -29 123 -90 181 -135 99 -77
128 -91 137 -65 4 12 -149 136 -298 242 -47 34 -116 93 -151 131 -63 68 -98
88 -98 56z"/>
<path d="M3516 3863 c-16 -41 49 -89 202 -149 92 -36 182 -89 189 -111 2 -6
-6 -13 -19 -15 -15 -2 -23 -10 -23 -23 0 -16 6 -19 29 -17 45 5 66 20 66 48 0
47 -85 107 -228 160 -102 39 -162 73 -174 99 -13 29 -33 33 -42 8z"/>
<path d="M10130 6060 c0 -51 100 -262 146 -310 24 -24 30 -25 129 -23 l105 2
0 -25 c0 -19 5 -25 18 -22 13 2 17 13 17 43 l0 40 -113 0 c-109 0 -115 1 -134
25 -26 31 -102 190 -119 248 -9 30 -18 42 -31 42 -11 0 -18 -7 -18 -20z"/>
<path d="M4388 3883 c-72 -111 -198 -349 -198 -377 0 -9 8 -16 18 -16 12 0 34
35 74 118 31 64 81 157 112 206 31 48 53 92 50 97 -11 19 -32 8 -56 -28z"/>
<path d="M4451 3523 c-28 -31 -87 -107 -130 -167 -77 -108 -168 -212 -177
-203 -3 3 2 35 11 72 16 69 14 85 -10 85 -19 0 -38 -71 -39 -150 -1 -60 1 -65
22 -68 31 -5 127 93 226 233 85 117 166 218 173 212 2 -3 -8 -44 -22 -92 -30
-105 -31 -125 -6 -125 15 0 23 18 45 95 29 105 32 135 14 153 -25 25 -56 12
-107 -45z"/>
<path d="M4332 3058 c-33 -68 -83 -161 -111 -208 -29 -46 -49 -90 -47 -97 11
-27 36 -11 71 45 49 78 185 347 185 366 0 9 -8 16 -19 16 -14 0 -34 -31 -79
-122z"/>
<path d="M12294 3116 c-3 -9 1 -34 10 -56 32 -81 11 -206 -53 -310 -36 -59
-38 -70 -11 -70 23 0 80 98 104 179 28 97 16 220 -25 257 -17 15 -19 15 -25 0z"/>
<path d="M12363 2364 c-3 -9 5 -26 21 -43 44 -46 47 -76 21 -208 -13 -65 -21
-121 -18 -125 2 -5 12 -8 21 -8 14 0 22 22 40 108 33 160 29 208 -26 265 -29
30 -50 35 -59 11z"/>
</g>
</svg>
